<?xml version="1.0" encoding="utf-8"?>
<!-- Generator: Adobe Illustrator 19.2.1, SVG Export Plug-In . SVG Version: 6.00 Build 0)  -->
<svg version="1.1" id="layer" xmlns="http://www.w3.org/2000/svg" xmlns:xlink="http://www.w3.org/1999/xlink" x="0px" y="0px"
	 viewBox="0 0 652 652" style="enable-background:new 0 0 652 652;" xml:space="preserve">
<style type="text/css">
	.st0{fill:#1E1E1E;}
	.st1{fill:#00B9E4;}
	.st2{fill:#BED600;}
	.st3{fill:#9A9B9C;}
</style>
<path class="st0" d="M484.3,125.4c-11.3,0-20.2-9.2-20.2-20.2s9.2-20.2,20.2-20.2c11.3,0,20.2,9.2,20.2,20.2
	S495.4,125.4,484.3,125.4z M484.3,87.2c-9.7,0-17.9,7.9-17.9,17.9c0,9.7,7.9,17.9,17.9,17.9c9.7,0,17.9-7.9,17.9-17.9
	C502,95.2,494.1,87.2,484.3,87.2z M475.1,92.8h11.8c6.2,0,7.4,4.6,7.4,6.7c0,2.6-1.3,4.9-3.6,5.6c2.1,0.8,3.1,1.5,3.1,5.9
	c0,3.3,0,4.4,1,4.6v0.5h-5.4c-0.3-1-0.5-2.3-0.5-4.9c0-3.3-0.3-4.4-3.8-4.4H480v9.2h-4.9V92.8z M485.6,103.1c2.6,0,3.8-0.8,3.8-3.3
	c0-1.3-0.5-3.1-3.3-3.1H480v6.4H485.6z M500.7,252.3c0-100.5-81.2-181.7-181.7-181.7c-100.2,0-181.4,81.2-181.4,181.7
	c0,100.2,81.2,181.7,181.7,181.7S500.7,352.5,500.7,252.3z"/>
<path class="st1" d="M444.9,359.6c24.3-28.7,39-66.9,39-107.6c0-20.5-3.6-40-10.5-57.9C451,132.6,389.8,86.7,320.6,86.7
	c-1.3,0-4.6,0-4.6,0c-12.8,0.5-25.9,2.8-36.4,5.9c-4.9,1.5-22.6,7.4-35.4,20.8c-13.6,14.1-21.8,33.1-21.8,54.1
	c0,34.3,23.6,62.5,55.4,75.3c13.6,5.4,28.4,8.7,39.5,11.5c19,4.6,59.2,11.3,92.5,33.3l1.3,0.8c20.8,14.4,33.6,35.1,33.6,69.2
	 M343.6,239.4c-24.1,0-43.3-19.5-43.3-43.3c0-24.1,19.5-43.3,43.3-43.3c23.8,0,43.3,19.5,43.3,43.3S367.5,239.4,343.6,239.4z"/>
<path class="st2" d="M153.5,252.5c0-43.8,17.4-84.1,45.4-113.8c-3.6,9.2-8.7,25.9-8.7,45.4c0,22,6.4,48.2,29.2,71.8l4.1,4.4
	c32.3,34.1,61.3,64.6,61.3,105.1c0,13.8-3.3,29-11.3,45.6C204.5,391.4,153.5,327.9,153.5,252.5"/>
<path class="st0" d="M470,468c-6.2-4.4-12.3-4.6-17.4-4.6h-21v59.2h18.7c7.2,0,13.3-0.3,19.2-3.6c8.7-4.9,12-15.1,12-25.4
	C481.3,486.7,479.7,475,470,468L470,468z M470.5,493.7c0,12.6-4.9,16.9-9.5,18.5c-2.6,1-5.9,1.5-14.4,1.5h-5.4v-41.3h6.7
	c7.7,0,9.5,0.3,12.8,1.8C469.7,478.3,470.5,487.8,470.5,493.7z M167.8,463.4l-20,59.2h10.8l3.6-11.8h23.6l3.6,11.8h10.8l-20.2-59.2
	C179.9,463.4,167.8,463.4,167.8,463.4z M183,502.1h-18.5l9.2-30.8l9,30L183,502.1z M206.8,522.6h9.7v-59.2h-9.7V522.6z M122.5,472.1
	h28.7v-8.7h-38.7v59.2h10V497h25.1v-8.5h-25.1V472.1L122.5,472.1z M530.7,472.1v-8.7h-41.5v59.2h41.5v-9h-31.8v-17.4h29v-8.5h-29
	v-15.4h31.8V472.1z M357.2,498c3.6-1,11.8-4.9,11.8-15.9c0-6.9-2.8-11.3-6.4-14.4c-5.1-4.1-10.3-4.1-18.2-4.1h-18.7v59.2h10v-22.3
	h11l12,22.3h11.5L357,498.5L357.2,498z M354.1,490.3c-2.6,1.3-5.1,1.5-6.4,1.5c-2.1,0-3.6,0.3-7.4,0.3h-4.6v-20.2h5.9
	c6.7,0,9.7,0,12.3,1.3c4.9,2.6,5.1,7.2,5.1,8.7C359,486.5,356.7,489.1,354.1,490.3L354.1,490.3z M394.1,463.4l-20,59.2h10.8
	l3.6-11.8h23.6l3.6,11.8h10.8l-20.2-59.2C406.2,463.4,394.1,463.4,394.1,463.4z M390.8,502.1l9.2-30.8l9.2,30.8H390.8z M275.7,472.4
	h16.4v50.2h10v-50.2h16.7v-9h-43.1C275.7,463.4,275.7,472.4,275.7,472.4z M260.6,498c3.6-1,11.8-4.9,11.8-15.9
	c0-6.9-2.8-11.5-6.4-14.4c-5.1-4.1-10.3-4.1-18.5-4.1h-18.7v59.2h10v-22.3h11l12,22.3h11.5l-13.3-24.3L260.6,498z M257.5,490.3
	c-2.6,1.3-5.4,1.5-6.4,1.5c-2.1,0-3.6,0.3-7.4,0.3h-4.6v-20.2h5.9c6.7,0,9.7,0,12.3,1.3c4.9,2.6,5.1,7.2,5.1,8.7
	C262.1,486.5,260.1,489.1,257.5,490.3L257.5,490.3z"/>
<path class="st3" d="M263.7,542.4c0-4.6-1.8-7.7-4.4-9.7c-3.6-2.8-6.9-2.8-12.3-2.8h-12.6v39.7h7.4v-14.6h6.4l7.9,14.6h8.5
	l-8.7-16.1C258,552.6,263.7,550,263.7,542.4L263.7,542.4z M249.1,548.5c-1.5,0-2.3,0-4.9,0h-2.6v-12.3h3.3c4.4,0,6.4,0,7.9,0.8
	c3.1,1.5,3.1,4.6,3.1,5.4C256,548.3,250.6,548.5,249.1,548.5z M294.7,558l-17.4-27.9h-6.7v39.7h7.2l-0.5-27.9l17.4,27.9h6.4v-39.7
	h-7.2C293.9,530.1,294.7,558,294.7,558z M205.8,552.1h19v-6.4h-19v-9.2h21v-6.7h-28.2v39.7h29.7v-6.7H206L205.8,552.1L205.8,552.1z
	 M164.5,536.5h10.8v32.8h7.4v-32.8h11v-6.7h-29.2C164.5,529.8,164.5,536.5,164.5,536.5z M153,558l-17.4-27.9h-6.9v39.7h7.2
	l-0.3-28.2l17.4,27.9h6.4v-39.7h-7.2L153,558L153,558z M112.5,569.5h7.2v-39.7h-7.2V569.5z M480.7,529.8l-13.3,39.7h7.9l2.3-7.7
	h14.9l2.3,7.7h7.9l-13.6-39.7H480.7z M479.5,555.2l5.6-18.2l5.4,18.2H479.5z M456.1,558l-17.4-27.9h-6.7v39.7h7.2l-0.5-27.9
	l17.4,27.9h6.4v-39.7h-7.4L456.1,558z M514.8,562.9v-33.1h-7.4v39.7h23.3v-6.7H514.8L514.8,562.9z M319,529.8l-13.3,39.7h7.9
	l2.3-7.7h14.9l2.3,7.7h7.9l-13.6-39.7H319z M318,555.2l5.4-18.2l5.4,18.2H318z M338.8,536.5h10.8v32.8h7.4v-32.8h11v-6.7h-29.2
	L338.8,536.5L338.8,536.5z M406.2,528.8c-10.8,0-19,8.7-19,21c0,4.9,1.3,10.3,5.4,14.6c4.1,4.6,8.7,6.2,13.6,6.2
	c12.3,0,19-9.5,19.2-20.8C425.1,536.2,415.9,528.8,406.2,528.8L406.2,528.8z M406.2,563.6c-6.7,0-11.5-5.4-11.5-14.4
	c0-8.2,4.6-13.8,11.3-13.8c7.7,0,11.8,7.2,11.5,14.9C417.4,560,411.3,563.6,406.2,563.6z M372.9,569.5h7.4v-39.7h-7.4V569.5z"/>
</svg>
