<svg id="Layer_1" data-name="Layer 1" xmlns="http://www.w3.org/2000/svg" viewBox="0 0 498 498"><defs><style>.cls-1{fill:#165259}</style></defs><path class="cls-1" d="M229.43 164.34c16.12-16.87 22.57-33.68 23.57-41.81s-.61-10.38-1.87-15.33a8.78 8.78 0 01-.22-3.48 8 8 0 019-7 8.19 8.19 0 016.64 9.37 9 9 0 01-1.17 3.26c-2.21 3.73-5.8 7.21-6.17 14.1-.25 4.88 4.6 7.44 8.46 3.71 10.07-9.72 12.12-16.46 13.86-20.25a10.19 10.19 0 011.85-2.91 7.72 7.72 0 0111.21 0 8.46 8.46 0 01-.15 11.63 9.78 9.78 0 01-2.84 1.87c-3.68 1.69-9.39 3.39-19.55 14.25-4.23 4.48-2.34 8.6 1.56 8.8 4.75.24 10.36-3.12 14.59-5.16a8.56 8.56 0 013.23-.92 8 8 0 018.41 7.68 8.13 8.13 0 01-7.49 8.66 8.77 8.77 0 01-3.32-.53c-3.84-1.32-9.21-3.74-15.06-3.25-13.38.78-25.49 11.75-26.54 18.35-.38 2.41 6.07 3.42 14.52 3.75-9.21 3.45-18.32 7.45-27.21 11.84a30.64 30.64 0 01-6.51-3.18c-5-3.35-3.58-8.46 1.29-13.52M151.66 195a9.94 9.94 0 01-2.07-7.89 9.73 9.73 0 011.94-4.5 6.88 6.88 0 01.66-.77 9.17 9.17 0 0113.32-.06 10 10 0 012.75 7.73c-.25.93-.45 1.88-.63 2.81a41.51 41.51 0 00.09 15.4 6 6 0 003.34 4.44 5.7 5.7 0 007.63-3l.26-.57a82.31 82.31 0 006.66-29v-.77a9.88 9.88 0 012.7-6.14 9.18 9.18 0 0113.32-.06 10.05 10.05 0 010 13.83 80.06 80.06 0 00-16.43 24.24c-7.35 5.28-14.23 10.66-20.52 16v-2.63a41.11 41.11 0 00-11.49-27.45 8.55 8.55 0 01-1.12-1c-.2-.22-.4-.42-.58-.66m73.12 168.91C237 372.8 241 380.07 243.5 384a11 11 0 002.49 2.92 8.6 8.6 0 0012.37-1.92 9.5 9.5 0 00-2-12.9 10.23 10.23 0 00-3.41-1.61c-4.33-1.27-11.67-2.18-24.19-12.25-5.21-4.16-3.81-8.91.35-9.76 5-1 12 .63 16.9 2.46a9.64 9.64 0 003.68.7 9.2 9.2 0 00-.56-18.38 9.47 9.47 0 00-3.64.94c-8.79 4-13.64 8.3-28.39 8-6.74-.12-16.62-3.3-23.39-6.79 26.56-4.49 48.33-12.65 58.35-18.72 4.79-2.91 6.7-6.19 6.55-10.52-.12-3.49-2.54-7.05-7-11.11-17.52-15.8-43.34-24.94-66.17-25.69-1.08 0-1.53-.25-1.56-.57s.74-.94 2.39-1.11c20.2-2.15 48.94 5 60.33 14.1 7.23-3.39 13.48-9.73 18.22-17.15a66.93 66.93 0 0010-24.3c.23-1.15.52-1.57 1-1.62s.83.57.92 1.68c1 11.54-1.33 20.75-2.66 29.71-.63 4.22-.29 7.28.75 9.41 1.71 3.55 4.86 4.31 9.1 4.07 15.28-.86 35.27 3.44 45.66 10 7.07 4.47 7.12 7.27 9.89 11.52a8.5 8.5 0 002.38 2.44 7.67 7.67 0 0010.89-2.46 8.45 8.45 0 00-2.46-11.35 8.24 8.24 0 00-3.13-1.22c-4.14-.71-9-.16-14.23-4.4-3.69-3-2.39-8.48 2.82-9.07 13.6-1.54 19.82 1.28 23.7 2.38a8.66 8.66 0 003.3.45 8.12 8.12 0 007.27-8.82 8 8 0 00-8.53-7.5 9 9 0 00-3.19 1c-3.63 1.78-8.57 5.15-23 6-6 .39-7.77-3.79-5.37-7 2.92-3.89 9-6.09 13.24-8.08a8.73 8.73 0 002.77-1.93 8.5 8.5 0 00-.09-11.64 7.64 7.64 0 00-11.14.21 9.17 9.17 0 00-1.78 2.95c-1.56 3.89-3.29 9.7-7.46 14-9.28 10-27.49 12.69-30.57 8.83-5.25-6.6 9.82-34.06 16.93-40.89 37.72-12.3 57.85-29.91 68-38.26 4.55-3.75 6.17-6.75 6.1-10.75-.05-3.42-2.16-6.47-5.25-9.31a29.89 29.89 0 00-4.74-3.5A62.31 62.31 0 00370 164c-2.14-1-4.32-2-6.5-2.87q-1.68-.69-3.36-1.35l-1.68-.64a1.47 1.47 0 01-.94-.8 1.39 1.39 0 01-.1-.33c-.11-.69-.3-1.6-.53-2.57a.14.14 0 010-.06 18.29 18.29 0 00-9.81-11.86 17 17 0 00-16.41 1.25 18.33 18.33 0 00-7.49 10.07c-.1.34-.19.68-.27 1 5.86-.84 12.79-.36 16.34.8a1 1 0 01.64.49 132.9 132.9 0 00-16.09 1.11C228.41 171.22 123.45 255.82 129.36 288c1.53 8.35 14.75 17.07 46.65 20.32 11 1.11 29.14.28 38.81-2.13 2.25-.56 3.86-1.32 5.53-1.51 1.46-.17 2.7.36 3 1.71a2.46 2.46 0 01-2.39 2.91c-2.34.31-2.58-.09-7 .38-12.21 1.32-44 9.07-57 14.36-5.8 2.35-9.58 5.76-8.81 9.78.62 3.29 4.61 6 16 8.17 15.42 2.91 39.06 8.84 45.48 29.43 2.86 9.22.93 11.64.29 17.37a10 10 0 00.3 3.9 8.79 8.79 0 0011 6.27 9.31 9.31 0 005.9-11.52 9.66 9.66 0 00-1.8-3.44c-3-3.78-7.58-7.27-9-14.66-1.05-5.24 3.77-8.79 8.46-5.4zM341 195.11a15.65 15.65 0 01-10 6.56c-9.73 2.2-20-2.68-22.37-13-2.35-10 3.91-21.75 13.87-24.49 3.88-1.07 8.36-.79 11 .51 1 .47 1.4 1 1.3 1.36s-.62.7-1.93.38a14 14 0 00-6.82.11c-8.2 2.11-12.42 10.68-10.7 19.24s9.94 13.65 17.81 11.52a14.39 14.39 0 006.59-3.92c1.24-1.28 1.75-1.36 2.07-.94s.25 1.09-.81 2.66m-1.87-14.1c.66 7.19-1.9 13.32-5.73 13.71s-7.47-5.11-8.13-12.29 1.91-13.31 5.74-13.71 7.47 5.12 8.12 12.29" transform="translate(-1 -1)"/><path class="cls-1" d="M442.33 287.57a9.58 9.58 0 00-8.42-9.48 9.49 9.49 0 018.42 9.42z" transform="translate(-1 -1)"/><path class="cls-1" d="M75.89 287.57a9.58 9.58 0 00-8.42-9.48 9.49 9.49 0 018.42 9.42z" transform="translate(-1 -1)"/><path class="cls-1" d="M431.7 297a9.49 9.49 0 01-8.42-9.42v-.05a9.59 9.59 0 008.42 9.47z" transform="translate(-1 -1)"/><path class="cls-1" d="M432.85 297a9.35 9.35 0 116.62-2.71 9.39 9.39 0 01-6.62 2.71z" transform="translate(-1 -1)"/><path class="cls-1" d="M65.27 297a9.5 9.5 0 01-8.44-9.42v-.32.23a9.59 9.59 0 008.44 9.51z" transform="translate(-1 -1)"/><path class="cls-1" d="M66.41 297a9.35 9.35 0 116.59-2.72 9.39 9.39 0 01-6.59 2.72z" transform="translate(-1 -1)"/><path class="cls-1" d="M83.18 334.64c-4.11 0-7.42-2.62-9.56-7.57l-.85-2a1.25 1.25 0 00-1.11-.91 1.89 1.89 0 00-.73.18l-9.22 4a1.31 1.31 0 01-.5.13c-.17 0-.35-.07-.56-.56L58 321.84a.89.89 0 01-.11-.65c.06-.15.23-.28.53-.41l30.23-13.06a1.36 1.36 0 01.5-.14c.17 0 .35.07.56.55l4.37 10.1c3 6.93 1 12.33-5.69 15.2a13.3 13.3 0 01-5.21 1.21zm.95-16.39a1.89 1.89 0 00-.73.18l-2.26 1a1.24 1.24 0 00-.77 1.86l1.31 3.05a2.44 2.44 0 002.26 1.6 3 3 0 001.21-.27 2.64 2.64 0 001.48-1.43 2.61 2.61 0 00-.07-2l-1.32-3a1.25 1.25 0 00-1.11-.99z" transform="translate(-1 -1)"/><path class="cls-1" d="M86.23 372.94c-.12 0-.31 0-.57-.44l-12.21-18.35a.91.91 0 01-.21-.62 1 1 0 01.48-.53l27.34-18.19a1.17 1.17 0 01.59-.24c.12 0 .31.05.58.44l12.21 18.35a.86.86 0 01.2.63 1.05 1.05 0 01-.47.53l-5.9 3.91a1.15 1.15 0 01-.58.24c-.13 0-.32 0-.58-.43l-7.43-11.17a1.29 1.29 0 00-1.06-.7 1.69 1.69 0 00-.92.34l-1.55 1a1.46 1.46 0 00-.71.87 1.38 1.38 0 00.28 1.1l6 9.07a.84.84 0 01.2.62c0 .17-.18.34-.47.53l-4.81 3.2a1.14 1.14 0 01-.59.24c-.12 0-.31-.05-.57-.44l-6-9.07a1.29 1.29 0 00-1.06-.7 1.64 1.64 0 00-.92.34l-1.51 1a1.48 1.48 0 00-.72.91 1.39 1.39 0 00.29 1.06L93 367.63c.34.52.28.78-.27 1.15l-5.89 3.92a1.2 1.2 0 01-.61.24z" transform="translate(-1 -1)"/><path class="cls-1" d="M117.28 400.48A17.77 17.77 0 01100 383a19.07 19.07 0 0118.26-18.11 17.84 17.84 0 0117.32 17.44 19.06 19.06 0 01-18.29 18.11zm.64-26.62a8.84 8.84 0 00-6.27 2.7 8.73 8.73 0 006 15 9.22 9.22 0 009-8.85 8.86 8.86 0 00-8.68-8.84z" transform="translate(-1 -1)"/><path class="cls-1" d="M134.88 419a1.12 1.12 0 01-.56-.22l-5.52-3.66c-.28-.18-.42-.34-.45-.49a.91.91 0 01.22-.63l18.16-27.48c.27-.4.45-.45.57-.45a1.09 1.09 0 01.56.22l9.17 6.07c6.3 4.16 7.56 9.79 3.56 15.84-2.34 3.53-5.21 5.32-8.53 5.32a13.47 13.47 0 01-7.34-2.55l-1.79-1.19a1.66 1.66 0 00-.89-.33 1.32 1.32 0 00-1 .72l-5.54 8.38c-.32.45-.5.45-.62.45zm14.36-21.34a1.33 1.33 0 00-1.06.72l-1.35 2.05a1.45 1.45 0 00-.31 1.11 1.38 1.38 0 00.68.87l2.76 1.83a2.79 2.79 0 001.51.49 2.56 2.56 0 002.13-1.27 2.65 2.65 0 00.45-2 2.54 2.54 0 00-1.16-1.65l-2.77-1.81a1.59 1.59 0 00-.88-.32z" transform="translate(-1 -1)"/><path class="cls-1" d="M171.4 439a1.23 1.23 0 01-.51-.15l-11.81-5.43c-.31-.14-.47-.26-.52-.42s0-.34.12-.65l13.75-29.91c.22-.48.41-.55.57-.55a1.31 1.31 0 01.51.15l6.29 2.89c.58.27.66.5.4 1.07l-9.38 20.39a1.21 1.21 0 00.69 1.85l3.51 1.62a.89.89 0 01.52.42.92.92 0 01-.13.65l-3.41 7.5c-.26.47-.44.57-.6.57z" transform="translate(-1 -1)"/><path class="cls-1" d="M206 450.11a1.55 1.55 0 01-.39-.06l-21.23-5.94a.92.92 0 01-.57-.33 1 1 0 010-.71l8.84-31.64c.16-.56.35-.67.62-.67a1.15 1.15 0 01.39.07l21.34 5.93a.91.91 0 01.56.34 1 1 0 010 .71l-1.9 6.82c-.15.56-.35.67-.62.67a1.48 1.48 0 01-.39-.06l-12.91-3.61a2 2 0 00-.55-.09c-.79 0-1.06.63-1.2 1.11l-.5 1.78a1.49 1.49 0 000 1.16 1.41 1.41 0 00.91.62l10.49 2.94a.87.87 0 01.57.33 1 1 0 010 .71l-1.56 5.56c-.16.57-.36.68-.63.68a1.48 1.48 0 01-.38-.06l-10.5-2.94a1.91 1.91 0 00-.55-.09c-.78 0-1 .63-1.19 1.11l-.48 1.74a1.46 1.46 0 000 1.16 1.37 1.37 0 00.91.61l12.92 3.62a.87.87 0 01.56.33 1 1 0 010 .72l-1.91 6.81c-.15.56-.35.67-.65.67z" transform="translate(-1 -1)"/><path class="cls-1" d="M245.49 442.48a1.4 1.4 0 00-.92.33 2.81 2.81 0 00-1.17 2.44 2.85 2.85 0 003 2.86 3.19 3.19 0 002.1-.83 1.6 1.6 0 00.51-1.19 1.4 1.4 0 00-.41-1.11l-2-2.1a1.52 1.52 0 00-1.11-.4zm2.13-15.56a2.5 2.5 0 00-2.51 2.62 4.18 4.18 0 001.19 2.73 2.05 2.05 0 001.31.55 2.13 2.13 0 001.27-.47l.31-.38a3.67 3.67 0 001-2.44 2.45 2.45 0 00-2.56-2.61zm-3.37 28.13c-4.48 0-9-3-9-8.82 0-3.24 1.34-5.74 4.34-8.11a1.17 1.17 0 00.2-1.71 11 11 0 01-2.47-7c0-4.79 3.25-9.95 10.42-10 6 0 10.26 3.92 10.28 9.52 0 3.17-1.79 6.1-5 8.26a1.14 1.14 0 00-.63.94 1.31 1.31 0 00.38.84l.75.86a1.35 1.35 0 00.93.5 1.75 1.75 0 001.16-.64l4.36-4.58a1.39 1.39 0 01.89-.47.94.94 0 01.65.32l3.77 3.8c.4.41.38.72-.1 1.19l-5.06 5.09a1.4 1.4 0 00-.48 1 1.65 1.65 0 00.64 1.11l5.63 6.15a.74.74 0 01.18.79.78.78 0 01-.77.37h-6.82a2.66 2.66 0 01-2.45-1.1l-1-1.16a1.32 1.32 0 00-.92-.49 2.34 2.34 0 00-1.23.61c-2.32 1.86-4.86 2.66-8.5 2.68z" transform="translate(-1 -1)"/><path class="cls-1" d="M291 450.87c-.27 0-.47-.11-.63-.67l-8.78-31.65c-.17-.64-.05-.88.55-1.05l4-1.09a2.09 2.09 0 01.64-.11 2.21 2.21 0 011.26.59l.3.2 16.29 10.81a1.33 1.33 0 00.72.23.91.91 0 00.73-.35 1.12 1.12 0 00.13-1l-3.88-14c-.18-.64-.05-.88.55-1.05L309 410a1.48 1.48 0 01.38-.06c.27 0 .47.11.62.67l8.79 31.65a1 1 0 010 .71.89.89 0 01-.56.33l-4 1.1a2.45 2.45 0 01-.64.11 2.21 2.21 0 01-1.26-.59l-16.58-11a1.33 1.33 0 00-.72-.23.85.85 0 00-.72.35 1.08 1.08 0 00-.14 1l3.9 13.96a1 1 0 010 .72.92.92 0 01-.56.33l-6.19 1.72a1.55 1.55 0 01-.32.1z" transform="translate(-1 -1)"/><path class="cls-1" d="M335.94 413.25a1 1 0 00-.76.34 1.73 1.73 0 00-.29 1.41l.59 4.61c.23 1.13.88 1.29 1.25 1.29a1.77 1.77 0 00.83-.23l2.72-1.42a1.41 1.41 0 00.85-1 1.47 1.47 0 00-.52-1.28l-3.46-3.14a1.84 1.84 0 00-1.21-.58zm-5.86 25.61c-.49 0-.59-.64-.61-.77l-4-34.18c-.11-1.08.06-1.58.68-1.89l5.11-2.68a1.26 1.26 0 01.6-.16 2.16 2.16 0 011.35.69L359 422.64a.91.91 0 01.37.72.73.73 0 01-.44.51l-6.71 3.51a1.76 1.76 0 01-.65.16 1.14 1.14 0 01-.78-.34l-2.42-2.2a2.55 2.55 0 00-1.65-.7 2.7 2.7 0 00-1.27.37l-6.54 3.42a2.33 2.33 0 00-1.4 2.57l.4 3.26a1.2 1.2 0 01-.69 1.28l-6.7 3.5a.91.91 0 01-.44.16z" transform="translate(-1 -1)"/><path class="cls-1" d="M369.67 415.75c-.11 0-.29-.05-.57-.42l-13.94-18.54a1.37 1.37 0 00-1-.65 1.54 1.54 0 00-.92.38L350 398.9a1 1 0 01-.56.26c-.11 0-.29 0-.58-.42l-4.52-6c-.38-.51-.35-.75.16-1.13l15-11.29a1.07 1.07 0 01.57-.26c.11 0 .28 0 .57.42l4.52 6a.91.91 0 01.26.62c0 .15-.15.31-.41.51l-3.14 2.39a1.21 1.21 0 00-.28 2l14 18.53c.37.51.34.75-.17 1.13l-5.13 3.87a1.1 1.1 0 01-.62.22z" transform="translate(-1 -1)"/><path class="cls-1" d="M390.07 395.6c-3.34 0-6.91-1.79-10.61-5.32l-14.24-13.58a1 1 0 01-.38-.61.93.93 0 01.32-.57l4.64-4.87a.79.79 0 01.52-.31 1 1 0 01.62.36l14.32 13.65a5.71 5.71 0 003.74 1.95 3.53 3.53 0 002.57-1.25 3.37 3.37 0 001.07-2.9 6.22 6.22 0 00-2.1-3.35l-14.31-13.65c-.48-.45-.5-.73-.07-1.18l4.58-4.79a.82.82 0 01.58-.34 1.1 1.1 0 01.65.32l14.22 13.57c3.46 3.3 5.39 6.57 5.75 9.72s-.87 6.2-3.63 9.09c-2.56 2.7-5.31 4.06-8.24 4.06z" transform="translate(-1 -1)"/><path class="cls-1" d="M400.3 347.8a3 3 0 00-2.47 1.4l-.14.21a1.81 1.81 0 00-.36 1.43 2 2 0 00.91 1.17l2 1.34a2.05 2.05 0 001.17.41 1.72 1.72 0 001.44-.89l.14-.21a2.92 2.92 0 00-.89-4.27 3.22 3.22 0 00-1.8-.59zm14.34 23.55a1.09 1.09 0 01-.55-.23l-27.38-18.29c-.53-.36-.58-.6-.22-1.13l4-6c2.64-3.95 5.81-6 9.19-6a11.37 11.37 0 016.27 2.16 12 12 0 014.72 5.75 1.43 1.43 0 00.93.91l14.17 4.57c.41.14.68.33.75.54a.71.71 0 01-.16.61l-3.54 5.3c-.45.68-.71.8-1 .8a2.93 2.93 0 01-1-.24l-10.57-3.62a1.71 1.71 0 00-.54-.1 1 1 0 00-.82.39.92.92 0 00-.14.68 1 1 0 00.49.69l9.35 6.24c.27.19.41.34.44.5a.93.93 0 01-.22.63l-3.6 5.38c-.21.41-.44.46-.57.46z" transform="translate(-1 -1)"/><path class="cls-1" d="M432.37 342.68a1.45 1.45 0 01-.52-.14l-30.05-13.25c-.6-.26-.71-.52-.46-1.09l8.89-20.2c.21-.47.42-.53.59-.53a1.27 1.27 0 01.53.14l6.48 2.85a1 1 0 01.55.45.84.84 0 01-.1.64l-5.41 12.27a1.41 1.41 0 00-.1 1.1 1.5 1.5 0 00.87.77l1.7.75a1.88 1.88 0 00.76.19c.5 0 .86-.29 1.13-.89l4.4-10c.2-.47.4-.53.58-.53a1.27 1.27 0 01.53.14l5.28 2.33a1 1 0 01.56.44.84.84 0 01-.1.64l-4.4 10a1.25 1.25 0 00.77 1.87l1.65.73a1.88 1.88 0 00.77.19 1.22 1.22 0 001.12-.89l5.41-12.27c.21-.46.41-.53.58-.53a1.53 1.53 0 01.54.14l6.48 2.86c.59.26.7.52.45 1.09l-8.85 20.2c-.25.47-.45.53-.63.53z" transform="translate(-1 -1)"/><path class="cls-1" d="M56.37 247a2.92 2.92 0 00-3.11 3v.25a1.67 1.67 0 001.9 1.86h2.41a1.68 1.68 0 001.91-1.85 3.21 3.21 0 00-.86-2.46 3.12 3.12 0 00-2.25-.85zM46 259.18c-.63 0-.81-.18-.81-.81v-7.18c0-7.6 3.81-11.78 10.69-11.78a12 12 0 017.14 2.18 1.48 1.48 0 00.87.3 1.76 1.76 0 00.42-.06l14.32-4a1.59 1.59 0 01.51-.08.68.68 0 01.46.14.83.83 0 01.16.56v6.37c0 1.09-.18 1.3-1.34 1.57l-10.8 2.84a1.12 1.12 0 00-1 1 1 1 0 001 .95h11.24a.87.87 0 01.65.17.9.9 0 01.16.64v6.48c0 .63-.18.8-.81.8z" transform="translate(-1 -1)"/><path class="cls-1" d="M69.31 210.88l-4.63.73c-.79.11-1.3.49-1.41 1s.22 1.07.91 1.48l4 2.43a1.91 1.91 0 00.9.27c.37 0 1-.16 1.23-1.22l.6-3a1.48 1.48 0 00-.22-1.26 1.35 1.35 0 00-1.11-.45zm10 22.13a1.12 1.12 0 01-.58-.2l-29.07-18.35c-.91-.59-1.19-1-1-1.72l1.13-5.66c.13-.68.56-1 1.63-1.19l33.91-5.76h.25a.72.72 0 01.57.22.74.74 0 01.09.63l-1.48 7.43a1.2 1.2 0 01-1 1l-3.23.53a2.35 2.35 0 00-2.17 2.06l-1.44 7.23a2.31 2.31 0 001.12 2.7l2.79 1.74a1.2 1.2 0 01.56 1.34l-1.48 7.42c-.08.38-.28.57-.58.57z" transform="translate(-1 -1)"/><path class="cls-1" d="M89.16 193.1a1.33 1.33 0 01-.48-.11l-30.76-11.78a.89.89 0 01-.54-.38.93.93 0 01.07-.67l2.55-6.75c.2-.5.39-.57.56-.57a1.25 1.25 0 01.48.11l30.76 11.78a.64.64 0 01.47 1l-2.59 6.75c-.15.52-.34.62-.52.62z" transform="translate(-1 -1)"/><path class="cls-1" d="M95.87 175.68a1.21 1.21 0 01-.58-.21L67 158.74c-.56-.34-.64-.6-.33-1.14l2.1-3.54c.46-.77.75-.82 1.71-1l19.58-3.55a1.13 1.13 0 001-.86 1 1 0 00-.58-1L78 140.25c-.3-.18-.46-.35-.5-.51a.92.92 0 01.17-.63l3.28-5.53c.24-.41.43-.46.58-.46a1.15 1.15 0 01.57.2l28.26 16.73c.57.34.64.6.33 1.14l-2.1 3.54c-.46.77-.75.82-1.7 1l-.36.06-19.19 3.52a1.14 1.14 0 00-1 .86 1 1 0 00.59 1l12.44 7.36c.29.18.46.34.5.51a.91.91 0 01-.17.63l-3.28 5.53c-.22.42-.42.48-.55.48z" transform="translate(-1 -1)"/><path class="cls-1" d="M117.13 142.94a1 1 0 01-.61-.32L91.89 120.9a1 1 0 01-.4-.59.86.86 0 01.29-.58l10.4-11.79c.21-.24.39-.36.56-.36a1 1 0 01.61.32l5.58 4.91a1 1 0 01.39.6.85.85 0 01-.29.58l-4.54 5.16a1.42 1.42 0 00-.45 1 1.38 1.38 0 00.57 1l1 .94a1.5 1.5 0 001 .44 1.37 1.37 0 001-.57l3.75-4.26a.82.82 0 01.57-.35 1 1 0 01.61.32l4.86 4.28a1 1 0 01.39.58.83.83 0 01-.28.6l-3.75 4.25a1.22 1.22 0 00.12 2l8.06 7.1c.49.44.52.71.11 1.18l-4.39 5c-.18.16-.36.28-.53.28z" transform="translate(-1 -1)"/><path class="cls-1" d="M136 119.09a17.7 17.7 0 01-14-7.31 18.06 18.06 0 01-3.9-13.1 17.06 17.06 0 016.76-11.51 17.34 17.34 0 0110.59-3.75 17.66 17.66 0 0113.91 7.27c6.29 8.19 5.1 18.57-2.83 24.67a17.32 17.32 0 01-10.53 3.73zm-.36-26.68a8.64 8.64 0 00-5.29 1.85 8.56 8.56 0 00-3.39 5.84 9.18 9.18 0 008.89 10 8.87 8.87 0 008.63-7.62 8.9 8.9 0 00-1.9-6.48 8.81 8.81 0 00-6.97-3.59z" transform="translate(-1 -1)"/><path class="cls-1" d="M164.64 73a3.23 3.23 0 00-1.42.35l-.23.11a1.82 1.82 0 00-1 1.05 1.94 1.94 0 00.19 1.47l1.06 2.17a1.79 1.79 0 001.55 1.15 2.17 2.17 0 00.94-.25l.24-.11a2.93 2.93 0 001.39-4.13 3 3 0 00-2.72-1.81zm2.1 28c-.15 0-.34-.06-.57-.53l-14.38-29.58c-.28-.58-.2-.8.38-1.08l6.45-3.14a15.19 15.19 0 016.54-1.67c3.81 0 6.76 2.08 8.75 6.19a12 12 0 011.17 7.34 1.42 1.42 0 00.34 1.26l9.92 11.1a1.14 1.14 0 01.38.84.75.75 0 01-.45.45l-5.73 2.78a2.23 2.23 0 01-.91.29c-.32 0-.6-.2-1.09-.8l-7.29-8.46a1.3 1.3 0 00-1-.52l-.34.08a.91.91 0 00-.49.53 1.07 1.07 0 00.09.83L173.46 97c.28.58.2.8-.38 1.08l-5.82 2.83a1.35 1.35 0 01-.52.09z" transform="translate(-1 -1)"/><path class="cls-1" d="M193.47 89c-.27 0-.47-.11-.63-.67L184 56.68c-.17-.64-.05-.88.55-1l21.22-5.93a1.55 1.55 0 01.39-.06c.27 0 .47.11.62.67l1.91 6.81a1 1 0 010 .7.86.86 0 01-.57.35l-12.91 3.61a1.42 1.42 0 00-.92.63 1.51 1.51 0 000 1.14l.5 1.79a1.28 1.28 0 001.21 1.06 2 2 0 00.55-.09L207 63.43a1.54 1.54 0 01.38-.06c.27 0 .47.11.63.67l1.55 5.55c.18.64.05.89-.55 1l-10.49 2.94a1.25 1.25 0 00-1 1.77l.49 1.74c.13.47.4 1.1 1.19 1.1a2 2 0 00.55-.09l12.91-3.6a1.54 1.54 0 01.38-.06c.27 0 .48.11.63.67l1.9 6.81c.18.64.06.88-.54 1l-21.23 5.94a1.42 1.42 0 01-.33.19z" transform="translate(-1 -1)"/><path class="cls-1" d="M232.65 81c-5.79 0-9.18-3.48-9.8-10.06-.12-1.26.27-1.39.88-1.45l6.15-.57c.52 0 .77.11.83.78.19 2 1.36 2.49 2.29 2.49h.31a2.29 2.29 0 002.18-2.52 2.36 2.36 0 00-2.6-2.32c-7.29-.16-10.67-3.09-11.3-9.79-.34-3.56.33-6.43 2-8.52a10 10 0 017.17-3.49c.43 0 .86-.06 1.28-.06 5.7 0 9.46 3.74 10.05 10a1.66 1.66 0 01-.17 1.14.89.89 0 01-.66.26l-6.16.57c-.52 0-.77-.11-.83-.77a2.32 2.32 0 00-2.35-2.34h-.28a2.44 2.44 0 00-1.69.84 2.24 2.24 0 00-.49 1.67c.19 2 1.75 2.29 3.41 2.3 6.43 0 10.3 3.48 10.89 9.72.65 6.92-2.93 11.43-9.57 12-.53.12-1.04.12-1.54.12z" transform="translate(-1 -1)"/><path class="cls-1" d="M257.8 79.85a.88.88 0 01-.63-.2.89.89 0 01-.17-.65l1.52-23.15a1.4 1.4 0 00-.26-1.08 1.45 1.45 0 00-1-.41l-4-.26a.88.88 0 01-.63-.2 1 1 0 01-.13-.66l.5-7.51c0-.66.25-.77.7-.77l18.9 1.24a1 1 0 01.64.2 1 1 0 01.12.66l-.49 7.52c-.05.65-.25.76-.7.76l-4.15-.27c-1 0-1.4.38-1.46 1.31l-1.52 23.15c0 .65-.25.76-.7.76z" transform="translate(-1 -1)"/><path class="cls-1" d="M312.41 70.15a1.74 1.74 0 00-1.28.75l-2.95 3.59a1.54 1.54 0 00-.35 1.37 1.42 1.42 0 001 .87l2.89 1a2.14 2.14 0 00.66.13c.75 0 1.2-.53 1.25-1.46l-.08-4.67c-.02-1.17-.63-1.58-1.14-1.58zm9.06 24.45a1 1 0 01-.35-.07L314 92a1.19 1.19 0 01-.85-1.16L313 87.6a2.35 2.35 0 00-1.75-2.36l-7-2.44a3.13 3.13 0 00-1-.19 2.43 2.43 0 00-1.82.93l-2.11 2.53a1.08 1.08 0 01-.88.45 2.06 2.06 0 01-.52-.08l-7.14-2.5a.77.77 0 01-.51-.44.92.92 0 01.27-.77l22.26-26.27c.55-.63.95-.89 1.39-.89a1.59 1.59 0 01.46.08l5.45 1.91c.65.23.9.7.95 1.79l1 34.39a1 1 0 01-.21.71.5.5 0 01-.37.15z" transform="translate(-1 -1)"/><path class="cls-1" d="M339.1 104.68a1.25 1.25 0 01-.54-.18l-11.36-6.31c-.29-.15-.45-.3-.49-.45a.89.89 0 01.17-.65l16-28.8c.24-.43.42-.49.57-.49a1.25 1.25 0 01.55.2l6 3.34c.29.16.44.3.48.45a.87.87 0 01-.16.65l-10.88 19.62a1.44 1.44 0 00-.22 1.1 1.41 1.41 0 00.78.84l3.37 1.87c.3.16.44.3.49.45a.94.94 0 01-.17.65l-4 7.25c-.27.4-.45.46-.59.46z" transform="translate(-1 -1)"/><path class="cls-1" d="M357.52 117.69a1.08 1.08 0 01-.56-.26l-10.45-7.74c-.51-.38-.55-.62-.17-1.13l19.6-26.47c.28-.39.46-.43.57-.43a1 1 0 01.56.25l5.57 4.09c.26.19.4.36.42.52a.84.84 0 01-.25.61l-13.35 18a1.22 1.22 0 00.29 2l3.1 2.3c.26.19.4.36.42.52a.84.84 0 01-.25.61l-4.93 6.66c-.28.42-.46.47-.57.47z" transform="translate(-1 -1)"/><path class="cls-1" d="M370.09 129.1a.93.93 0 01-.57-.32l-5.26-5c-.23-.23-.35-.41-.35-.57a1 1 0 01.32-.58l22.61-23.94c.23-.25.41-.36.57-.36a1 1 0 01.57.32l5.26 5c.46.44.47.69 0 1.15l-22.6 23.94a.88.88 0 01-.55.36z" transform="translate(-1 -1)"/><path class="cls-1" d="M400.25 133.93a2.27 2.27 0 00-.74.13l-4.45 1.37a1.53 1.53 0 00-1 .95 1.46 1.46 0 00.35 1.28l1.86 2.43a1.43 1.43 0 001.13.67 1.47 1.47 0 001.18-.73l2.51-3.95a1.56 1.56 0 00.25-1.61 1.12 1.12 0 00-1.09-.54zm-4.85 25.7a.77.77 0 01-.55-.35l-4.6-6a1.18 1.18 0 01-.07-1.43l1.73-2.77a2.34 2.34 0 00-.17-2.94l-4.48-5.87a2.29 2.29 0 00-1.91-1.06 3.21 3.21 0 00-.86.13l-3.15.94a1.64 1.64 0 01-.42.06 1.25 1.25 0 01-1-.52l-4.59-6a.71.71 0 01-.18-.64.88.88 0 01.64-.5l33-9.73a3.66 3.66 0 011-.16 1.18 1.18 0 011 .51l3.51 4.58c.41.55.36 1.08-.2 2l-18.06 29.27a.87.87 0 01-.64.48z" transform="translate(-1 -1)"/><path class="cls-1" d="M411 192.27c-.17 0-.37-.06-.58-.53L408.7 188c-.38-.81-.23-1.1.18-2l.16-.33 8.07-17.67a1.2 1.2 0 000-1.13.87.87 0 00-.75-.39 1.26 1.26 0 00-.55.13l-13.17 6a1.23 1.23 0 01-.53.14c-.17 0-.37-.06-.58-.53l-2.67-5.85a.83.83 0 01-.11-.63.94.94 0 01.55-.46l29.88-13.63a1.34 1.34 0 01.54-.15c.17 0 .37.06.58.52l1.71 3.75c.37.82.24 1.1-.17 2l-.16.33-8.12 17.79a1.18 1.18 0 000 1.13.89.89 0 00.75.39 1.32 1.32 0 00.56-.14l13.21-6a1.35 1.35 0 01.53-.15c.17 0 .37.06.59.53l2.66 5.85a.85.85 0 01.11.64 1 1 0 01-.55.45l-29.88 13.64a1.34 1.34 0 01-.54.04z" transform="translate(-1 -1)"/><path class="cls-1" d="M428.5 227.79a3 3 0 01-.71-.1c-5.91-1.39-10.47-6.33-11.91-12.91a17 17 0 012.27-13.14 18.14 18.14 0 0111.43-7.49 20.7 20.7 0 014.39-.48 16.6 16.6 0 0116.67 13.52c1.43 6.58-.65 13-5.44 16.7a1.83 1.83 0 01-1 .49 1 1 0 01-.72-.43l-3.86-5c-.49-.63-.49-.88 0-1.48a8.77 8.77 0 002.27-8.3 8.5 8.5 0 00-8.45-6.82 9.36 9.36 0 00-2 .23 8.89 8.89 0 00-5.59 3.74 8.56 8.56 0 00-1.19 6.62 8.78 8.78 0 005.53 6.6c.72.32.83.54.65 1.33l-1.45 6.13c-.14.57-.39.79-.89.79z" transform="translate(-1 -1)"/><path class="cls-1" d="M421.09 259.21c-.63 0-.83-.19-.84-.8l-.36-22c0-.61.19-.81.84-.82l32.83-.54c.67 0 .87.18.88.8l.36 22a.89.89 0 01-.17.64 1.09 1.09 0 01-.68.18l-7.08.11c-.67 0-.86-.17-.87-.79l-.22-13.4a1.23 1.23 0 00-1.42-1.38h-1.91a1.55 1.55 0 00-1.09.36 1.43 1.43 0 00-.33 1.07l.17 10.89a.84.84 0 01-.16.63 1 1 0 01-.68.19l-5.78.1c-.66 0-.86-.18-.87-.8l-.18-10.89a1.24 1.24 0 00-1.42-1.38h-1.85c-1 0-1.45.47-1.43 1.43l.22 13.4c0 .61-.19.81-.85.82z" transform="translate(-1 -1)"/><path class="cls-1" d="M499 250c0-7.14-12.23-13.69-12.84-20.67s10.31-15.66 9.1-22.57-14.41-11.35-16.26-18.14 7.42-17.19 5-23.81-16.16-8.63-19.14-15 4.31-18.22.78-24.32-17.42-5.67-21.47-11.45 1.08-18.68-3.46-24.09-18.13-2.56-23.13-7.56-2.14-18.58-7.56-23.13-18.29.61-24.09-3.46-5.31-17.92-11.45-21.46-17.89 3.77-24.32.77-8.34-16.72-15-19.15-16.95 6.85-23.81 5S300.25 6 293.24 4.74s-15.47 9.71-22.57 9.09S257.14 1 250 1s-13.69 12.23-20.67 12.83-15.66-10.3-22.57-9.09S195.41 19.15 188.63 21s-17.2-7.42-23.81-5-8.64 16.17-15 19.15-18.21-4.31-24.32-.77-5.7 17.36-11.5 21.41-18.65-1.08-24 3.46-2.57 18.13-7.57 23.12-18.63 2.15-23.18 7.57.61 18.29-3.45 24.08-17.93 5.32-21.47 11.46 3.77 17.89.77 24.32-16.72 8.34-19.14 15 6.84 16.95 5 23.81S6 199.75 4.74 206.76s9.71 15.47 9.09 22.57S1 242.86 1 250s12.23 13.69 12.83 20.67-10.3 15.66-9.09 22.57S19.15 304.58 21 311.37s-7.42 17.21-5 23.81 16.16 8.64 19.14 15-4.31 18.22-.77 24.32 17.37 5.69 21.43 11.5-1.09 18.67 3.45 24.09 18.13 2.56 23.13 7.56 2.14 18.58 7.56 23.13 18.29-.62 24.08 3.46 5.32 17.92 11.46 21.46 17.89-3.77 24.32-.77 8.34 16.72 15 19.14 16.95-6.84 23.81-5 11.13 15 18.14 16.22 15.47-9.7 22.57-9.09S242.86 499 250 499s13.69-12.23 20.67-12.84 15.66 10.31 22.57 9.09 11.34-14.4 18.14-16.22 17.19 7.42 23.81 5 8.63-16.16 15-19.14 18.22 4.31 24.32.77 5.67-17.41 11.45-21.46 18.68 1.09 24.08-3.46 2.58-18.13 7.57-23.13 18.58-2.15 23.12-7.56-.6-18.29 3.46-24.09 17.93-5.32 21.47-11.45-3.77-17.89-.77-24.32 16.71-8.34 19.14-15-6.84-16.94-5-23.81 15-11.12 16.23-18.13-9.71-15.46-9.1-22.57S499 257.14 499 250zM250 471.9c-122.35 0-221.9-99.55-221.9-221.9S127.65 28.1 250 28.1 471.9 127.64 471.9 250 372.35 471.9 250 471.9z" transform="translate(-1 -1)"/><path class="cls-1" d="M234.48 106.91a4.86 4.86 0 100-9.71h-1.3a153.74 153.74 0 00-42.94 294.45l2 .81a4.65 4.65 0 001.82.36 4.85 4.85 0 001.82-9.35l-1.94-.79a144 144 0 0140-275.8z" transform="translate(-1 -1)"/><path class="cls-1" d="M403.72 250a153.49 153.49 0 00-8.23-49.75 4.86 4.86 0 00-9.19 3.15A143.55 143.55 0 01394 250c0 71-52.86 132.2-122.86 142.45l-3.46.45a4.86 4.86 0 00.61 9.67 4.46 4.46 0 00.63-.05l3.54-.45C347.3 391.14 403.72 325.76 403.72 250z" transform="translate(-1 -1)"/></svg>